<svg width="106" height="106" viewBox="0 0 106 106" fill="none" xmlns="http://www.w3.org/2000/svg">
<path d="M70.6847 35.6118C77.639 35.6118 84.3085 38.3744 89.2259 43.2918C94.1433 48.2093 96.9059 54.8787 96.9059 61.833V92.4244H79.4251V61.833C79.4251 59.5149 78.5043 57.2918 76.8651 55.6526C75.226 54.0135 73.0028 53.0926 70.6847 53.0926C68.3666 53.0926 66.1435 54.0135 64.5043 55.6526C62.8652 57.2918 61.9443 59.5149 61.9443 61.833V92.4244H44.4635V61.833C44.4635 54.8787 47.2261 48.2093 52.1436 43.2918C57.061 38.3744 63.7304 35.6118 70.6847 35.6118Z" stroke="#B3B3B3" stroke-width="8.7404" stroke-linecap="round" stroke-linejoin="round"/>
<path d="M26.9827 39.982H9.50195V92.4244H26.9827V39.982Z" stroke="#B3B3B3" stroke-width="8.7404" stroke-linecap="round" stroke-linejoin="round"/>
<path d="M18.2424 26.8714C23.0695 26.8714 26.9827 22.9582 26.9827 18.131C26.9827 13.3038 23.0695 9.39062 18.2424 9.39062C13.4152 9.39062 9.50195 13.3038 9.50195 18.131C9.50195 22.9582 13.4152 26.8714 18.2424 26.8714Z" stroke="#B3B3B3" stroke-width="8.7404" stroke-linecap="round" stroke-linejoin="round"/>
</svg>
