<svg width="21" height="20" viewBox="0 0 21 20" fill="none" xmlns="http://www.w3.org/2000/svg">
<path d="M13.7911 6.94646C15.0714 6.94646 16.2992 7.45505 17.2045 8.36034C18.1098 9.26564 18.6184 10.4935 18.6184 11.7738V17.4056H15.4002V11.7738C15.4002 11.347 15.2307 10.9377 14.9289 10.636C14.6271 10.3342 14.2178 10.1647 13.7911 10.1647C13.3643 10.1647 12.955 10.3342 12.6533 10.636C12.3515 10.9377 12.182 11.347 12.182 11.7738V17.4056H8.96376V11.7738C8.96376 10.4935 9.47235 9.26564 10.3777 8.36034C11.2829 7.45505 12.5108 6.94646 13.7911 6.94646Z" stroke="#767676" stroke-width="1.6091" stroke-linecap="round" stroke-linejoin="round"/>
<path d="M5.74555 7.75101H2.52734V17.4056H5.74555V7.75101Z" stroke="#767676" stroke-width="1.6091" stroke-linecap="round" stroke-linejoin="round"/>
<path d="M4.13645 5.33735C5.02513 5.33735 5.74555 4.61693 5.74555 3.72825C5.74555 2.83956 5.02513 2.11914 4.13645 2.11914C3.24776 2.11914 2.52734 2.83956 2.52734 3.72825C2.52734 4.61693 3.24776 5.33735 4.13645 5.33735Z" stroke="#767676" stroke-width="1.6091" stroke-linecap="round" stroke-linejoin="round"/>
</svg>
