<svg width="17" height="17" viewBox="0 0 17 17" fill="none" xmlns="http://www.w3.org/2000/svg">
<g clip-path="url(#clip0_8_1805)">
<path d="M15.406 11.779V13.8179C15.4067 14.0072 15.3679 14.1946 15.2921 14.368C15.2163 14.5414 15.1051 14.6971 14.9656 14.8251C14.8261 14.953 14.6615 15.0504 14.4821 15.1111C14.3028 15.1717 14.1128 15.1942 13.9243 15.1772C11.833 14.95 9.82405 14.2353 8.05903 13.0907C6.41689 12.0472 5.02465 10.655 3.98118 9.01285C2.83257 7.2398 2.11776 5.22112 1.89468 3.12036C1.87769 2.93241 1.90003 2.74299 1.96026 2.56415C2.0205 2.38532 2.11731 2.22098 2.24453 2.08161C2.37176 1.94223 2.52661 1.83088 2.69923 1.75463C2.87185 1.67838 3.05845 1.63892 3.24716 1.63874H5.28609C5.61592 1.63549 5.93568 1.75229 6.18577 1.96737C6.43586 2.18244 6.59921 2.48112 6.64537 2.80772C6.73143 3.46022 6.89103 4.10089 7.12112 4.71751C7.21256 4.96077 7.23235 5.22515 7.17815 5.47931C7.12394 5.73347 6.99801 5.96677 6.81528 6.15156L5.95214 7.0147C6.91964 8.71622 8.32847 10.125 10.03 11.0926L10.8931 10.2294C11.0779 10.0467 11.3112 9.92075 11.5654 9.86654C11.8195 9.81234 12.0839 9.83213 12.3272 9.92357C12.9438 10.1537 13.5845 10.3133 14.237 10.3993C14.5671 10.4459 14.8686 10.6122 15.0842 10.8666C15.2997 11.121 15.4142 11.4457 15.406 11.779Z" stroke="#767676" stroke-width="1.35928" stroke-linecap="round" stroke-linejoin="round"/>
</g>
<defs>
<clipPath id="clip0_8_1805">
<rect width="16.3114" height="16.3114" fill="white" transform="translate(0.454102 0.279297)"/>
</clipPath>
</defs>
</svg>
