<svg width="62" height="63" viewBox="0 0 62 63" fill="none" xmlns="http://www.w3.org/2000/svg">
<path d="M56.7876 44.0847V51.79C56.7905 52.5053 56.644 53.2133 56.3574 53.8687C56.0708 54.5242 55.6505 55.1125 55.1234 55.5961C54.5963 56.0796 53.9741 56.4478 53.2964 56.677C52.6188 56.9061 51.9008 56.9912 51.1884 56.9268C43.285 56.0681 35.6931 53.3674 29.023 49.0418C22.8172 45.0984 17.5558 39.837 13.6124 33.6313C9.27175 26.9308 6.57046 19.302 5.72739 11.3631C5.66321 10.6528 5.74762 9.93699 5.97524 9.26114C6.20287 8.5853 6.56873 7.96426 7.04953 7.43756C7.53032 6.91086 8.11552 6.49004 8.76786 6.20189C9.4202 5.91375 10.1254 5.76459 10.8385 5.76392H18.5438C19.7903 5.75165 20.9987 6.19305 21.9438 7.00584C22.8889 7.81862 23.5062 8.94734 23.6806 10.1816C24.0059 12.6475 24.609 15.0686 25.4785 17.3989C25.8241 18.3182 25.8989 19.3173 25.694 20.2778C25.4892 21.2383 25.0133 22.1199 24.3227 22.8182L21.0609 26.0801C24.7171 32.5103 30.0412 37.8344 36.4714 41.4906L39.7333 38.2287C40.4316 37.5382 41.3132 37.0623 42.2737 36.8575C43.2342 36.6526 44.2333 36.7274 45.1526 37.073C47.4829 37.9425 49.904 38.5456 52.3699 38.8709C53.6175 39.0469 54.757 39.6753 55.5715 40.6366C56.386 41.598 56.8188 42.8251 56.7876 44.0847Z" stroke="#B3B3B3" stroke-width="5.13684" stroke-linecap="round" stroke-linejoin="round"/>
</svg>
