<svg width="103" height="103" viewBox="0 0 103 103" fill="none" xmlns="http://www.w3.org/2000/svg">
<g clip-path="url(#clip0_113_100)">
<path d="M51.7463 4.47266V12.9913M51.7463 89.6586V98.1772M18.609 18.1876L24.6572 24.2358M78.8355 78.4141L84.8837 84.4623M4.89404 51.3249H13.4126M90.08 51.3249H98.5986M18.609 84.4623L24.6572 78.4141M78.8355 24.2358L84.8837 18.1876M73.0428 51.3249C73.0428 63.0867 63.508 72.6214 51.7463 72.6214C39.9846 72.6214 30.4498 63.0867 30.4498 51.3249C30.4498 39.5632 39.9846 30.0284 51.7463 30.0284C63.508 30.0284 73.0428 39.5632 73.0428 51.3249Z" stroke="#BF6A02" stroke-width="8.5186" stroke-linecap="round" stroke-linejoin="round"/>
</g>
<defs>
<clipPath id="clip0_113_100">
<rect width="102.223" height="102.223" fill="white" transform="translate(0.634766 0.212891)"/>
</clipPath>
</defs>
</svg>
